<svg
    width="89"
    height="89"
    viewBox="0 0 89 89"
    fill="none"
    xmlns="http://www.w3.org/2000/svg"
>
    <g filter="url(#filter0_d_2657_66160)">
        <rect
            x="1.43652"
            width="86"
            height="86"
            rx="24"
            fill="url(#paint0_linear_2657_66160)"
        />
        <path
            d="M37.7857 29.5165C39.5542 27.7907 41.909 26.8401 44.4182 26.8401C46.9337 26.8493 49.2854 27.7999 51.0444 29.5165C52.2044 30.6486 53.0366 32.0514 53.459 33.5926C55.363 33.3404 57.2607 33.3958 59.149 33.7588C58.6667 30.6978 57.2261 27.9199 54.9564 25.708C52.1477 22.967 48.4185 21.4534 44.4434 21.4473C41.8049 21.4473 39.2232 22.1148 36.9693 23.3854C35.8313 24.0191 34.7879 24.8035 33.8642 25.7049C31.6324 27.8768 30.1571 30.7255 29.6748 33.7618C31.5693 33.3927 33.467 33.3342 35.3773 33.5865C35.8029 32.0452 36.632 30.6424 37.7889 29.5165"
            fill="#181818"
        />
        <path
            d="M66.3704 39.7569C64.8636 38.2802 63.0006 37.1143 60.9799 36.3852C60.7372 36.296 60.4882 36.216 60.2391 36.1391L60.0752 36.0899C59.946 36.0499 59.8167 36.0099 59.6812 35.9761C58.8931 35.7669 58.0451 35.6223 57.1656 35.5454C56.6423 35.4992 56.2105 35.4746 55.8007 35.4746C55.3373 35.4746 54.8613 35.4961 54.3821 35.5423C53.8053 35.5977 53.2252 35.6838 52.661 35.8007C52.4624 35.8438 52.2575 35.8899 52.0589 35.9422C49.9374 36.4775 47.9325 37.4804 46.2649 38.837C46.2397 38.8555 46.2176 38.877 46.1924 38.8955L50.1391 42.744C50.1391 42.744 50.158 42.7348 50.1643 42.7255C51.8098 41.5135 53.7611 40.8705 55.8133 40.8705C58.3288 40.8705 60.6962 41.8303 62.4678 43.5777C64.2237 45.3004 65.1883 47.5862 65.1883 50.0134C65.1883 52.0038 64.5074 53.9511 63.2717 55.5385L62.9438 55.9815L62.471 56.4491C60.6962 58.1934 58.332 59.1532 55.8133 59.1532C53.9566 59.1532 52.1629 58.6241 50.6183 57.6212L50.4733 57.5104L37.3249 44.6913C36.1271 43.7684 34.6486 43.267 33.0725 43.267C32.8518 43.267 32.6311 43.2793 32.4168 43.2977C32.3726 43.3008 32.3411 43.307 32.3064 43.3131L32.215 43.3254C32.0606 43.3439 31.9219 43.3623 31.7737 43.387L31.5404 43.4393C31.4017 43.4669 31.2756 43.4977 31.1495 43.5346C31.096 43.55 31.0392 43.5654 30.9888 43.5838L30.8942 43.6115C30.7839 43.6484 30.6641 43.6915 30.5411 43.7346C30.4592 43.7684 30.3772 43.7992 30.2984 43.8361C30.1786 43.8853 30.0651 43.9376 29.9548 43.9961C29.8792 44.033 29.8003 44.0699 29.7247 44.113C29.6049 44.1745 29.4946 44.2422 29.3842 44.3099C29.2897 44.3683 29.2329 44.4021 29.1762 44.4421C29.1604 44.4514 29.1447 44.4637 29.1289 44.4729L46.328 61.239C48.9601 63.3678 52.3331 64.5522 55.8007 64.5522C57.1373 64.5522 58.4675 64.3768 59.7568 64.0292C62.2535 63.3616 64.542 62.0603 66.3735 60.2668C69.176 57.5258 70.7143 53.8834 70.7143 50.0134C70.7143 46.1434 69.1728 42.501 66.3735 39.7569"
            fill="#181818"
        />
        <path
            d="M38.457 57.4867C36.8713 58.5757 35.0083 59.1541 33.0728 59.1541C30.5667 59.1541 28.2119 58.2035 26.4403 56.4777C24.6687 54.7518 23.6946 52.4538 23.6946 50.0142C23.6946 47.8239 24.5048 45.7012 25.9832 44.04C26.0967 43.9108 26.1976 43.8 26.2985 43.6924V43.6862L26.4403 43.5478C27.758 42.2619 29.4161 41.3974 31.2287 41.0467C31.8339 40.9329 32.4549 40.8713 33.0728 40.8713C35.2258 40.8713 37.2559 41.5697 38.9393 42.8894L39.0149 42.954L52.097 55.7055C52.7622 56.1208 53.5282 56.4254 54.3163 56.5976C55.0129 56.7484 55.7537 56.7914 56.4661 56.7238L56.671 56.693C56.8255 56.6776 56.9674 56.6592 57.1092 56.6315C57.166 56.6222 57.2227 56.6069 57.2826 56.5946L57.3551 56.5761C57.4875 56.5453 57.6167 56.5176 57.7428 56.4838C57.8216 56.4592 57.9068 56.4346 57.9919 56.4069C58.1148 56.3669 58.2346 56.3269 58.3512 56.2808C58.4332 56.25 58.5152 56.2162 58.6003 56.1792C58.7137 56.13 58.8304 56.0746 58.9407 56.0224C59.0227 55.9824 59.1015 55.9424 59.1771 55.9024C59.2906 55.8408 59.401 55.7732 59.505 55.7086C59.5869 55.6563 59.6594 55.6163 59.7288 55.5671C59.7477 55.5578 59.7666 55.5455 59.7824 55.5301L44.2509 40.3853C44.0145 40.133 43.819 39.9269 43.6205 39.7331C43.3903 39.5147 43.2012 39.3393 43.0026 39.1701C41.231 37.6258 39.078 36.506 36.7768 35.9338C36.575 35.8877 36.3764 35.8384 36.1715 35.7985C35.6104 35.6816 35.0525 35.5985 34.5134 35.5462C34.0311 35.5031 33.5519 35.4785 33.0791 35.4785C32.6661 35.4785 32.2311 35.5 31.7078 35.5493C30.841 35.6262 30.015 35.7677 29.2396 35.9677C29.1166 35.9984 28.9968 36.0384 28.8771 36.0753L28.71 36.1245C28.4389 36.2045 28.1741 36.2907 27.9093 36.386C25.895 37.1121 24.0351 38.2718 22.5283 39.7362C19.7101 42.4803 18.1592 46.1319 18.1592 50.0142C18.1592 53.8966 19.7101 57.5451 22.5251 60.2954C24.3629 62.0858 26.6578 63.381 29.1576 64.0424C30.4375 64.3808 31.752 64.5531 33.0728 64.5531C36.6065 64.5531 40.0174 63.3287 42.7094 61.1045L38.7722 57.2683C38.6713 57.3452 38.5673 57.419 38.4601 57.4898"
            fill="#181818"
        />
    </g>
    <defs>
        <filter
            id="filter0_d_2657_66160"
            x="-0.000104189"
            y="0"
            width="88.8733"
            height="88.8733"
            filterUnits="userSpaceOnUse"
            color-interpolation-filters="sRGB"
        >
            <feFlood flood-opacity="0" result="BackgroundImageFix" />
            <feColorMatrix
                in="SourceAlpha"
                type="matrix"
                values="0 0 0 0 0 0 0 0 0 0 0 0 0 0 0 0 0 0 127 0"
                result="hardAlpha"
            />
            <feOffset dy="1.43663" />
            <feGaussianBlur stdDeviation="0.718314" />
            <feComposite in2="hardAlpha" operator="out" />
            <feColorMatrix
                type="matrix"
                values="0 0 0 0 0 0 0 0 0 0 0 0 0 0 0 0 0 0 0.2 0"
            />
            <feBlend
                mode="normal"
                in2="BackgroundImageFix"
                result="effect1_dropShadow_2657_66160"
            />
            <feBlend
                mode="normal"
                in="SourceGraphic"
                in2="effect1_dropShadow_2657_66160"
                result="shape"
            />
        </filter>
        <linearGradient
            id="paint0_linear_2657_66160"
            x1="44.4365"
            y1="0"
            x2="44.4365"
            y2="86"
            gradientUnits="userSpaceOnUse"
        >
            <stop stop-color="#E0FF9F" />
            <stop offset="1" stop-color="#B0FB16" />
        </linearGradient>
    </defs>
</svg>
